<svg width="1340" height="661" viewBox="0 0 1340 661" fill="none" xmlns="http://www.w3.org/2000/svg">
<path d="M212.772 520H207.133V489.3H212.772V508.659L221.119 498.077H227.559L220.278 507.224L227.559 520H221.119L216.669 512.022L212.772 517.19V520Z" fill="#A7A3F2"/>
<path d="M363.772 69H358.133V38.2998H363.772V57.6592L372.119 47.0771H378.559L371.278 56.2236L378.559 69H372.119L367.669 61.0225L363.772 66.1904V69Z" fill="#A7A3F2"/>
<path d="M280.91 384H275.045V363C275.045 362.59 274.963 362.207 274.799 361.852C274.648 361.496 274.437 361.188 274.163 360.929C273.903 360.655 273.596 360.443 273.24 360.293C272.885 360.143 272.502 360.067 272.092 360.067C271.682 360.067 271.299 360.143 270.943 360.293C270.588 360.443 270.273 360.655 270 360.929C269.74 361.188 269.535 361.496 269.385 361.852C269.234 362.207 269.159 362.59 269.159 363V384H263.273V363C263.273 362.59 263.198 362.207 263.048 361.852C262.897 361.496 262.686 361.188 262.412 360.929C262.152 360.655 261.845 360.443 261.489 360.293C261.134 360.143 260.751 360.067 260.341 360.067C259.931 360.067 259.548 360.143 259.192 360.293C258.837 360.443 258.522 360.655 258.249 360.929C257.989 361.188 257.784 361.496 257.634 361.852C257.483 362.207 257.408 362.59 257.408 363V384H251.522V363C251.522 361.783 251.748 360.642 252.199 359.575C252.664 358.495 253.293 357.559 254.086 356.766C254.893 355.959 255.829 355.33 256.896 354.879C257.976 354.414 259.124 354.182 260.341 354.182C261.435 354.182 262.487 354.38 263.499 354.776C264.511 355.159 265.42 355.72 266.227 356.458C267.033 355.72 267.936 355.159 268.934 354.776C269.945 354.38 270.998 354.182 272.092 354.182C273.309 354.182 274.45 354.414 275.517 354.879C276.597 355.33 277.533 355.959 278.326 356.766C279.133 357.559 279.762 358.495 280.213 359.575C280.678 360.642 280.91 361.783 280.91 363V384Z" fill="#A7A3F2"/>
<path d="M629.291 594.296C629.291 595.649 629.113 596.955 628.758 598.213C628.416 599.457 627.924 600.626 627.281 601.72C626.639 602.8 625.873 603.791 624.984 604.693C624.096 605.582 623.104 606.348 622.011 606.99C620.917 607.633 619.741 608.132 618.483 608.487C617.239 608.829 615.94 609 614.587 609H605.728V579.592H614.587C615.94 579.592 617.239 579.77 618.483 580.125C619.741 580.467 620.917 580.959 622.011 581.602C623.104 582.244 624.096 583.017 624.984 583.919C625.873 584.808 626.639 585.799 627.281 586.893C627.924 587.973 628.416 589.142 628.758 590.399C629.113 591.644 629.291 592.942 629.291 594.296ZM623.405 594.296C623.405 593.079 623.173 591.938 622.708 590.871C622.257 589.805 621.628 588.875 620.821 588.082C620.028 587.275 619.092 586.64 618.012 586.175C616.945 585.71 615.804 585.478 614.587 585.478H611.654V603.114H614.587C615.804 603.114 616.945 602.889 618.012 602.438C619.092 601.973 620.028 601.344 620.821 600.551C621.628 599.744 622.257 598.808 622.708 597.741C623.173 596.661 623.405 595.513 623.405 594.296Z" fill="#A7A3F2"/>
<path d="M806.25 168.182C806.25 169.398 806.018 170.54 805.553 171.606C805.088 172.673 804.452 173.609 803.646 174.416C802.853 175.209 801.923 175.838 800.856 176.303C799.79 176.768 798.648 177 797.432 177H782.728V147.592H797.432C798.648 147.592 799.79 147.824 800.856 148.289C801.923 148.754 802.853 149.39 803.646 150.196C804.452 150.989 805.088 151.919 805.553 152.985C806.018 154.052 806.25 155.193 806.25 156.41C806.25 156.957 806.175 157.518 806.024 158.092C805.874 158.666 805.662 159.22 805.389 159.753C805.115 160.286 804.787 160.771 804.404 161.209C804.021 161.646 803.598 162.009 803.133 162.296C803.611 162.556 804.042 162.911 804.425 163.362C804.808 163.8 805.136 164.285 805.409 164.818C805.683 165.352 805.888 165.912 806.024 166.5C806.175 167.074 806.25 167.635 806.25 168.182ZM788.613 171.114H797.432C797.842 171.114 798.225 171.039 798.58 170.889C798.936 170.738 799.243 170.533 799.503 170.273C799.776 170 799.988 169.686 800.139 169.33C800.289 168.975 800.364 168.592 800.364 168.182C800.364 167.771 800.289 167.389 800.139 167.033C799.988 166.678 799.776 166.37 799.503 166.11C799.243 165.837 798.936 165.625 798.58 165.475C798.225 165.324 797.842 165.249 797.432 165.249H788.613V171.114ZM788.613 159.363H797.432C797.842 159.363 798.225 159.288 798.58 159.138C798.936 158.987 799.243 158.782 799.503 158.522C799.776 158.249 799.988 157.935 800.139 157.579C800.289 157.21 800.364 156.82 800.364 156.41C800.364 156 800.289 155.617 800.139 155.262C799.988 154.906 799.776 154.599 799.503 154.339C799.243 154.065 798.936 153.854 798.58 153.703C798.225 153.553 797.842 153.478 797.432 153.478H788.613V159.363Z" fill="#A7A3F2"/>
<path d="M1002.36 493.823C1002.36 495.464 1002.06 496.995 1001.48 498.417C1000.89 499.825 1000.09 501.049 999.077 502.088C998.065 503.113 996.876 503.927 995.509 504.528C994.155 505.116 992.699 505.41 991.141 505.41C989.596 505.41 988.14 505.116 986.772 504.528C985.419 503.927 984.229 503.113 983.204 502.088C982.192 501.049 981.393 499.825 980.805 498.417C980.217 496.995 979.923 495.464 979.923 493.823C979.923 492.155 980.217 490.61 980.805 489.188C981.393 487.767 982.192 486.543 983.204 485.518C984.229 484.479 985.419 483.665 986.772 483.077C988.14 482.489 989.596 482.195 991.141 482.195C992.699 482.195 994.155 482.476 995.509 483.036C996.876 483.583 998.065 484.369 999.077 485.395C1000.09 486.406 1000.89 487.63 1001.48 489.065C1002.06 490.487 1002.36 492.073 1002.36 493.823ZM996.719 493.823C996.719 492.921 996.568 492.107 996.268 491.383C995.98 490.645 995.584 490.016 995.078 489.496C994.572 488.963 993.978 488.56 993.294 488.286C992.624 487.999 991.906 487.855 991.141 487.855C990.375 487.855 989.65 487.999 988.967 488.286C988.297 488.56 987.709 488.963 987.203 489.496C986.711 490.016 986.321 490.645 986.034 491.383C985.747 492.107 985.604 492.921 985.604 493.823C985.604 494.671 985.747 495.457 986.034 496.182C986.321 496.906 986.711 497.535 987.203 498.068C987.709 498.602 988.297 499.025 988.967 499.34C989.65 499.641 990.375 499.791 991.141 499.791C991.906 499.791 992.624 499.647 993.294 499.36C993.978 499.073 994.572 498.67 995.078 498.15C995.584 497.631 995.98 497.002 996.268 496.264C996.568 495.525 996.719 494.712 996.719 493.823Z" fill="#A7A3F2"/>
<path d="M434.358 493.823C434.358 495.464 434.064 496.995 433.477 498.417C432.889 499.825 432.089 501.049 431.077 502.088C430.065 503.113 428.876 503.927 427.509 504.528C426.155 505.116 424.699 505.41 423.141 505.41C421.596 505.41 420.14 505.116 418.772 504.528C417.419 503.927 416.229 503.113 415.204 502.088C414.192 501.049 413.393 499.825 412.805 498.417C412.217 496.995 411.923 495.464 411.923 493.823C411.923 492.155 412.217 490.61 412.805 489.188C413.393 487.767 414.192 486.543 415.204 485.518C416.229 484.479 417.419 483.665 418.772 483.077C420.14 482.489 421.596 482.195 423.141 482.195C424.699 482.195 426.155 482.476 427.509 483.036C428.876 483.583 430.065 484.369 431.077 485.395C432.089 486.406 432.889 487.63 433.477 489.065C434.064 490.487 434.358 492.073 434.358 493.823ZM428.719 493.823C428.719 492.921 428.568 492.107 428.268 491.383C427.98 490.645 427.584 490.016 427.078 489.496C426.572 488.963 425.978 488.56 425.294 488.286C424.624 487.999 423.906 487.855 423.141 487.855C422.375 487.855 421.65 487.999 420.967 488.286C420.297 488.56 419.709 488.963 419.203 489.496C418.711 490.016 418.321 490.645 418.034 491.383C417.747 492.107 417.604 492.921 417.604 493.823C417.604 494.671 417.747 495.457 418.034 496.182C418.321 496.906 418.711 497.535 419.203 498.068C419.709 498.602 420.297 499.025 420.967 499.34C421.65 499.641 422.375 499.791 423.141 499.791C423.906 499.791 424.624 499.647 425.294 499.36C425.978 499.073 426.572 498.67 427.078 498.15C427.584 497.631 427.98 497.002 428.268 496.264C428.568 495.525 428.719 494.712 428.719 493.823Z" fill="#A7A3F2"/>
<path d="M1048.77 241.367H1043.13V211.036H1044.49L1046.72 213.682C1047.23 213.203 1047.78 212.752 1048.38 212.328C1048.98 211.904 1049.61 211.542 1050.25 211.241C1050.91 210.927 1051.58 210.681 1052.28 210.503C1052.98 210.325 1053.68 210.236 1054.39 210.236C1055.94 210.236 1057.39 210.517 1058.74 211.077C1060.11 211.624 1061.3 212.403 1062.31 213.415C1063.33 214.427 1064.14 215.65 1064.73 217.086C1065.32 218.508 1065.61 220.087 1065.61 221.823C1065.61 223.628 1065.32 225.255 1064.73 226.704C1064.14 228.14 1063.33 229.363 1062.31 230.375C1061.3 231.373 1060.11 232.139 1058.74 232.672C1057.39 233.205 1055.94 233.472 1054.39 233.472C1053.9 233.472 1053.41 233.417 1052.92 233.308C1052.44 233.198 1051.96 233.055 1051.48 232.877C1051.01 232.686 1050.55 232.474 1050.08 232.241C1049.63 232.009 1049.2 231.77 1048.77 231.523V241.367ZM1059.99 221.823C1059.99 220.894 1059.84 220.06 1059.54 219.321C1059.25 218.583 1058.86 217.961 1058.35 217.455C1057.84 216.936 1057.25 216.539 1056.57 216.266C1055.88 215.992 1055.16 215.855 1054.39 215.855C1053.63 215.855 1052.9 215.992 1052.22 216.266C1051.55 216.539 1050.96 216.936 1050.45 217.455C1049.95 217.961 1049.54 218.583 1049.24 219.321C1048.96 220.06 1048.81 220.894 1048.81 221.823C1048.81 222.712 1048.96 223.525 1049.24 224.264C1049.54 225.002 1049.95 225.631 1050.45 226.15C1050.96 226.67 1051.55 227.073 1052.22 227.36C1052.9 227.647 1053.63 227.791 1054.39 227.791C1055.16 227.791 1055.88 227.647 1056.57 227.36C1057.25 227.073 1057.84 226.67 1058.35 226.15C1058.86 225.631 1059.25 225.002 1059.54 224.264C1059.84 223.525 1059.99 222.712 1059.99 221.823Z" fill="#A7A3F2"/>
<path d="M1199.06 596.05C1199.06 594.409 1198.73 592.827 1198.09 591.304C1197.47 589.751 1196.62 588.389 1195.54 587.217C1194.46 586.016 1193.18 585.063 1191.72 584.36C1190.28 583.628 1188.74 583.262 1187.1 583.262C1185.46 583.262 1183.91 583.54 1182.45 584.097C1181.01 584.653 1179.75 585.474 1178.67 586.558C1177.61 587.642 1176.78 588.989 1176.16 590.601C1175.55 592.183 1175.24 593.999 1175.24 596.05C1175.24 598.013 1175.55 599.785 1176.16 601.367C1176.78 602.92 1177.61 604.253 1178.67 605.366C1179.75 606.479 1181.01 607.344 1182.45 607.959C1183.91 608.545 1185.46 608.838 1187.1 608.838C1188.74 608.838 1190.28 608.486 1191.72 607.783C1193.18 607.051 1194.46 606.099 1195.54 604.927C1196.62 603.726 1197.47 602.363 1198.09 600.84C1198.73 599.287 1199.06 597.69 1199.06 596.05ZM1211.14 614.067C1211.14 617.378 1210.51 620.483 1209.25 623.384C1207.99 626.284 1206.26 628.818 1204.07 630.986C1201.9 633.154 1199.35 634.868 1196.42 636.128C1193.52 637.388 1190.41 638.018 1187.1 638.018L1181.08 637.93V625.933L1187.02 626.021C1188.89 626.021 1190.49 625.771 1191.81 625.273C1193.12 624.805 1194.24 624.146 1195.15 623.296C1196.05 622.476 1196.77 621.523 1197.3 620.439C1197.86 619.355 1198.29 618.213 1198.62 617.012C1198.15 617.773 1197.47 618.403 1196.6 618.901C1195.72 619.37 1194.74 619.751 1193.65 620.044C1192.6 620.366 1191.48 620.586 1190.31 620.703C1189.17 620.82 1188.1 620.879 1187.1 620.879C1183.79 620.879 1180.67 620.308 1177.74 619.165C1174.84 618.022 1172.29 616.396 1170.1 614.287C1167.93 612.148 1166.21 609.541 1164.96 606.465C1163.7 603.389 1163.07 599.917 1163.07 596.05C1163.07 592.505 1163.7 589.209 1164.96 586.162C1166.21 583.115 1167.93 580.479 1170.1 578.252C1172.29 576.025 1174.84 574.282 1177.74 573.022C1180.67 571.763 1183.79 571.133 1187.1 571.133C1188.63 571.133 1190.14 571.323 1191.63 571.704C1193.12 572.085 1194.57 572.612 1195.98 573.286C1197.39 573.96 1198.72 574.751 1199.98 575.659C1201.27 576.567 1202.47 577.549 1203.58 578.604L1208.24 573.022H1211.14V614.067Z" fill="#A7A3F2"/>
<path d="M263.275 246H250.361L240.119 228.818L229.84 246H217L233.328 219.393L217 192.785H229.84L240.119 209.967L250.361 192.785H263.275L246.947 219.393L263.275 246Z" fill="#FFD980"/>
<path d="M41.8594 375.264C41.8594 377.861 41.4017 380.199 40.4863 382.277C39.571 384.355 38.3464 386.112 36.8125 387.547C35.2786 388.982 33.4974 390.083 31.4688 390.85C29.4648 391.617 27.362 392 25.1602 392H3.71094V381.35H25.1602C25.8776 381.35 26.5951 381.238 27.3125 381.016C28.0547 380.793 28.7103 380.434 29.2793 379.939C29.873 379.445 30.3431 378.814 30.6895 378.047C31.0605 377.28 31.2461 376.352 31.2461 375.264C31.2461 374.274 31.0605 373.408 30.6895 372.666C30.3431 371.899 29.873 371.268 29.2793 370.773C28.7103 370.254 28.0547 369.87 27.3125 369.623C26.5951 369.351 25.8776 369.215 25.1602 369.215H3.71094L6.82812 338.785H39.6699V349.436H16.4023L15.4375 358.564H25.1602C27.362 358.564 29.4648 358.948 31.4688 359.715C33.4974 360.482 35.2786 361.595 36.8125 363.055C38.3464 364.49 39.571 366.246 40.4863 368.324C41.4017 370.378 41.8594 372.691 41.8594 375.264Z" fill="#80FFD9"/>
<path d="M183.859 58.2637C183.859 60.8613 183.402 63.1992 182.486 65.2773C181.571 67.3555 180.346 69.112 178.812 70.5469C177.279 71.9818 175.497 73.0827 173.469 73.8496C171.465 74.6165 169.362 75 167.16 75H145.711V64.3496H167.16C167.878 64.3496 168.595 64.2383 169.312 64.0156C170.055 63.793 170.71 63.4342 171.279 62.9395C171.873 62.4447 172.343 61.8138 172.689 61.0469C173.061 60.2799 173.246 59.3522 173.246 58.2637C173.246 57.2741 173.061 56.4082 172.689 55.666C172.343 54.8991 171.873 54.2682 171.279 53.7734C170.71 53.2539 170.055 52.8704 169.312 52.623C168.595 52.3509 167.878 52.2148 167.16 52.2148H145.711L148.828 21.7852H181.67V32.4355H158.402L157.438 41.5645H167.16C169.362 41.5645 171.465 41.9479 173.469 42.7148C175.497 43.4818 177.279 44.5951 178.812 46.0547C180.346 47.4896 181.571 49.2461 182.486 51.3242C183.402 53.3776 183.859 55.6908 183.859 58.2637Z" fill="#A7A3F2"/>
<path d="M817.249 406H811.65V389.614H808.923V384.036H811.65V382.99C811.65 381.637 811.903 380.365 812.409 379.176C812.929 377.986 813.633 376.954 814.521 376.079C815.424 375.19 816.47 374.493 817.659 373.987C818.849 373.468 820.12 373.208 821.474 373.208H825.678V378.786H821.474C820.872 378.786 820.312 378.896 819.792 379.114C819.286 379.319 818.842 379.613 818.459 379.996C818.09 380.365 817.796 380.81 817.577 381.329C817.358 381.835 817.249 382.389 817.249 382.99V384.036H824.119V389.614H817.249V406Z" fill="#A7A3F2"/>
<path d="M1234.37 280L1226 258.036H1232.38L1237.18 271.735L1241.96 258.036H1248.35L1239.99 280H1234.37Z" fill="#FF9980"/>
<path d="M1185.37 54L1177 32.0361H1183.38L1188.18 45.7354L1192.96 32.0361H1199.35L1190.99 54H1185.37Z" fill="#797979"/>
<path d="M1328.15 453C1326.79 453 1325.52 452.747 1324.33 452.241C1323.14 451.722 1322.1 451.018 1321.19 450.129C1320.3 449.227 1319.6 448.181 1319.08 446.991C1318.58 445.802 1318.32 444.53 1318.32 443.177V436.655H1315.59V431.077H1318.32V422.3H1323.9V431.077H1332.39V436.655H1323.9V443.177C1323.9 443.765 1324.01 444.318 1324.23 444.838C1324.45 445.344 1324.75 445.788 1325.13 446.171C1325.51 446.554 1325.96 446.861 1326.48 447.094C1327 447.312 1327.56 447.422 1328.15 447.422H1332.39V453H1328.15Z" fill="#A7A3F2"/>
<path d="M1337.64 147.182C1337.64 148.398 1337.41 149.54 1336.94 150.606C1336.48 151.673 1335.84 152.609 1335.04 153.416C1334.24 154.209 1333.31 154.838 1332.25 155.303C1331.18 155.768 1330.04 156 1328.82 156H1317.05V150.114H1328.82C1329.23 150.114 1329.62 150.039 1329.97 149.889C1330.33 149.738 1330.63 149.533 1330.89 149.273C1331.17 149 1331.38 148.686 1331.53 148.33C1331.68 147.975 1331.75 147.592 1331.75 147.182C1331.75 146.771 1331.68 146.389 1331.53 146.033C1331.38 145.678 1331.17 145.37 1330.89 145.11C1330.63 144.837 1330.33 144.625 1329.97 144.475C1329.62 144.324 1329.23 144.249 1328.82 144.249H1320.8V138.363H1328.82C1329.23 138.363 1329.62 138.288 1329.97 138.138C1330.33 137.987 1330.63 137.782 1330.89 137.522C1331.17 137.249 1331.38 136.935 1331.53 136.579C1331.68 136.21 1331.75 135.82 1331.75 135.41C1331.75 135 1331.68 134.617 1331.53 134.262C1331.38 133.906 1331.17 133.599 1330.89 133.339C1330.63 133.065 1330.33 132.854 1329.97 132.703C1329.62 132.553 1329.23 132.478 1328.82 132.478H1317.05V126.592H1328.82C1330.04 126.592 1331.18 126.824 1332.25 127.289C1333.31 127.754 1334.24 128.39 1335.04 129.196C1335.84 129.989 1336.48 130.919 1336.94 131.985C1337.41 133.052 1337.64 134.193 1337.64 135.41C1337.64 136.49 1337.44 137.543 1337.05 138.568C1336.65 139.58 1336.09 140.489 1335.36 141.296C1336.09 142.103 1336.65 143.019 1337.05 144.044C1337.44 145.056 1337.64 146.102 1337.64 147.182Z" fill="#A7A3F2"/>
<path d="M57.4863 127.592C57.4863 128.918 57.1855 130.142 56.584 131.263C55.9824 132.384 55.1553 133.354 54.1025 134.175C53.0635 134.981 51.8467 135.61 50.4521 136.062C49.0576 136.526 47.5674 136.759 45.9814 136.759C44.3955 136.759 42.9053 136.526 41.5107 136.062C40.1162 135.61 38.8926 134.981 37.8398 134.175C36.8008 133.354 35.9805 132.384 35.3789 131.263C34.7773 130.142 34.4766 128.918 34.4766 127.592C34.4766 126.826 34.5791 126.081 34.7842 125.356C34.9893 124.618 35.2832 123.928 35.666 123.285C36.0625 122.643 36.5342 122.055 37.0811 121.521C37.6279 120.975 38.2432 120.51 38.9268 120.127C38.5029 119.758 38.1201 119.334 37.7783 118.855C37.4502 118.377 37.1631 117.871 36.917 117.338C36.6846 116.805 36.5068 116.258 36.3838 115.697C36.2607 115.123 36.1992 114.556 36.1992 113.995C36.1992 112.847 36.4521 111.773 36.958 110.775C37.4775 109.764 38.1816 108.882 39.0703 108.13C39.959 107.364 40.998 106.763 42.1875 106.325C43.377 105.888 44.6416 105.669 45.9814 105.669C47.335 105.669 48.6064 105.888 49.7959 106.325C50.9854 106.763 52.0244 107.364 52.9131 108.13C53.8154 108.882 54.5195 109.764 55.0254 110.775C55.5449 111.773 55.8047 112.847 55.8047 113.995C55.8047 114.556 55.7363 115.123 55.5996 115.697C55.4766 116.258 55.2988 116.812 55.0664 117.358C54.834 117.892 54.5469 118.397 54.2051 118.876C53.877 119.354 53.501 119.785 53.0771 120.168C53.7471 120.551 54.3555 121.009 54.9023 121.542C55.4492 122.075 55.9141 122.663 56.2969 123.306C56.6797 123.948 56.9736 124.632 57.1787 125.356C57.3838 126.081 57.4863 126.826 57.4863 127.592ZM50.042 114.631C50.042 114.152 49.9326 113.708 49.7139 113.298C49.5088 112.874 49.2217 112.505 48.8525 112.19C48.4971 111.876 48.0732 111.63 47.5811 111.452C47.0889 111.274 46.5693 111.186 46.0225 111.186C45.4619 111.186 44.9355 111.274 44.4434 111.452C43.9512 111.63 43.5205 111.876 43.1514 112.19C42.7959 112.505 42.5088 112.874 42.29 113.298C42.085 113.708 41.9824 114.152 41.9824 114.631C41.9824 115.109 42.085 115.554 42.29 115.964C42.5088 116.374 42.7959 116.729 43.1514 117.03C43.5205 117.331 43.9512 117.57 44.4434 117.748C44.9355 117.926 45.4619 118.015 46.0225 118.015C46.5693 118.015 47.0889 117.926 47.5811 117.748C48.0732 117.57 48.4971 117.331 48.8525 117.03C49.2217 116.729 49.5088 116.374 49.7139 115.964C49.9326 115.554 50.042 115.109 50.042 114.631ZM51.6416 127.428C51.6416 126.771 51.4912 126.163 51.1904 125.603C50.9033 125.028 50.5 124.529 49.9805 124.105C49.4746 123.682 48.873 123.347 48.1758 123.101C47.4922 122.854 46.7607 122.731 45.9814 122.731C45.2021 122.731 44.4707 122.854 43.7871 123.101C43.1035 123.347 42.502 123.682 41.9824 124.105C41.4766 124.529 41.0732 125.028 40.7725 125.603C40.4854 126.163 40.3418 126.771 40.3418 127.428C40.3418 128.084 40.4854 128.686 40.7725 129.232C41.0732 129.779 41.4766 130.251 41.9824 130.647C42.502 131.044 43.1035 131.358 43.7871 131.591C44.4707 131.81 45.2021 131.919 45.9814 131.919C46.7607 131.919 47.4922 131.81 48.1758 131.591C48.873 131.358 49.4746 131.044 49.9805 130.647C50.5 130.251 50.9033 129.779 51.1904 129.232C51.4912 128.686 51.6416 128.084 51.6416 127.428Z" fill="#A7A3F2"/>
<path d="M89.6465 635.296C89.6465 632.028 89.0996 629.602 88.0059 628.016C86.9258 626.43 85.415 625.637 83.4736 625.637C81.5459 625.637 80.0488 626.423 78.9824 627.995C77.916 629.567 77.3828 632.001 77.3828 635.296C77.3828 638.563 77.916 640.99 78.9824 642.576C80.0488 644.162 81.5459 644.955 83.4736 644.955C84.4443 644.955 85.3125 644.764 86.0781 644.381C86.8438 643.984 87.4863 643.39 88.0059 642.597C88.5391 641.804 88.9424 640.806 89.2158 639.603C89.5029 638.386 89.6465 636.95 89.6465 635.296ZM95.2451 635.296C95.2451 638.085 94.9375 640.443 94.3223 642.371C93.707 644.299 92.8662 645.857 91.7998 647.047C90.7334 648.236 89.4824 649.098 88.0469 649.631C86.625 650.15 85.1006 650.41 83.4736 650.41C81.8467 650.41 80.3154 650.144 78.8799 649.61C77.458 649.063 76.2139 648.195 75.1475 647.006C74.0947 645.803 73.2607 644.244 72.6455 642.33C72.0303 640.402 71.7227 638.058 71.7227 635.296C71.7227 632.507 72.0303 630.155 72.6455 628.241C73.2607 626.313 74.0947 624.755 75.1475 623.565C76.2139 622.376 77.458 621.515 78.8799 620.981C80.3154 620.448 81.8467 620.182 83.4736 620.182C85.1006 620.182 86.625 620.455 88.0469 621.002C89.4824 621.535 90.7334 622.403 91.7998 623.606C92.8662 624.81 93.707 626.368 94.3223 628.282C94.9375 630.196 95.2451 632.534 95.2451 635.296Z" fill="#A7A3F2"/>
</svg>
