<svg width="1440" height="137" viewBox="0 0 1440 137" fill="none" xmlns="http://www.w3.org/2000/svg">
<path d="M1440 0H0C0 7.28105 6.72815 13.3212 13.9519 14.232C19.9111 14.9834 27.667 16.6242 37 20C46.9838 23.6112 62.917 43.2774 57.801 104.13C57.615 106.342 57.7404 108.617 58.2743 110.773C65.3115 139.181 73.2833 136.013 75.5 136C82.1281 135.961 94 135.5 99.5 105.5C103.9 81.5 55.5 21.5 98 23.5C140.5 25.5 108.5 89.5 127.5 89C146.5 88.5 147.609 58 148.5 52C158 -12 168.761 22.2747 182 21.5C196.45 20.6544 194 2 221.5 7C249 12 258 24 292.5 18.5C327 13 317.543 55.1544 341 55.5C354.51 55.6991 359.846 29.0612 372.416 24.7645C374.699 23.984 377.154 24.62 379.429 25.422C397.483 31.7834 417.206 35.743 444 16C465 6 458.398 9.84049 481 10C543 36.5 586.5 43 633 20.3321C633 20.3321 658.704 9.96938 675.5 10C690.959 10.0282 725.678 23.9845 742.5 24C760.722 24.0168 767.5 27.5 783.5 20.5C796.097 16.0012 804.241 5.83542 814.852 8.57731C817.361 9.2255 819.365 11.0344 821.175 12.8885C838.169 30.2982 849.27 23.6335 851 22.5C865.5 13 864.65 10.7388 873 11.5C895.169 13.5209 885.542 33.5 884.5 46C883.458 58.5 893.5 67.5 904 66C914.5 64.5 894 35.5 902 20.5C910 5.5 938.226 8.51588 950.5 8.5C963.378 8.48333 988.732 25.0376 1000.5 25C1018.63 24.9421 1058.87 10.1121 1074 10C1093.99 9.85184 1127.16 22.7542 1141 22.5C1163.82 22.0809 1170.09 17.7537 1172.5 17C1194.59 10.0981 1204.82 4.04313 1225.01 18.318C1228.66 20.8997 1233.07 23.5207 1234.14 27.8631C1236.16 36.0611 1236.01 52.3423 1236 67.4003C1236 68.4661 1236.07 69.5336 1236.27 70.5803C1238.89 84.2049 1247.09 90.7118 1249 90.5C1252.99 90.0567 1262.88 92.7582 1268.9 82.2222C1270.58 79.2759 1270.7 75.7471 1270.3 72.3772C1267.26 46.9185 1273.33 38.7842 1283 39.5C1295.05 40.3924 1287 58.5 1305.5 58.5C1324 58.5 1325.48 13.8412 1338 15C1370.22 17.9828 1356 82.5 1353.5 97C1351 111.5 1366.5 112 1373.5 111C1380.5 110 1387.5 104.5 1389 93.5C1390.5 82.5 1378.73 45.7708 1386 25C1391.22 10.0838 1411.9 22.709 1416.5 22.5C1420.99 22.296 1425.73 20.8433 1429.76 19.1949C1436.39 16.4878 1440 9.66805 1440 2.50742V0Z" fill="white"/>
<path d="M1357.25 99.3963C1357.62 101.011 1364.63 107.954 1372.17 106.213C1379.7 104.472 1383.93 94.9322 1383.56 93.3179C1383.18 91.7036 1381.54 99.2563 1374 100.997C1366.47 102.738 1356.88 97.782 1357.25 99.3963Z" fill="#4F46E5"/>
<path d="M892.465 60.1192C892.699 61.1324 897.099 65.4901 901.828 64.3976C906.556 63.3051 904.623 54.162 904.389 53.1488C904.155 52.1356 904.73 59.9066 900.002 60.9991C895.274 62.0916 892.231 59.106 892.465 60.1192Z" fill="#4F46E5"/>
<path d="M1297.44 51.3841C1297.63 52.2162 1302.96 55.3988 1309.37 53.9195C1315.77 52.4401 1314.27 44.9095 1314.08 44.0773C1313.89 43.2451 1313.74 49.7703 1307.34 51.2497C1300.94 52.7291 1297.25 50.5519 1297.44 51.3841Z" fill="#4F46E5"/>
<path d="M65.1784 117.995C65.9194 119.477 77.2329 129.738 84.1486 126.28C91.0642 122.822 91.9248 107.209 91.1838 105.727C90.4428 104.245 91.0642 116.769 84.1486 120.227C77.2329 123.685 64.4374 116.513 65.1784 117.995Z" fill="#4F46E5"/>
<path d="M122.201 77.0743C122.358 78.035 127.224 85.7154 132.146 84.9127C137.068 84.11 140.718 75.4319 140.561 74.4712C140.405 73.5106 138.279 80.6902 133.357 81.4929C128.435 82.2956 122.045 76.1137 122.201 77.0743Z" fill="#4F46E5"/>
<path d="M825.46 13.2227C826.201 14.7047 839.695 24.4602 846.61 21.0023C853.526 17.5443 856.742 12.9843 856.001 11.5024C855.26 10.0204 853.526 14.0444 846.61 17.5024C839.695 20.9603 824.719 11.7408 825.46 13.2227Z" fill="#4F46E5"/>
<path d="M734.497 19.4946C735.212 20.7973 753.54 22.7082 762.189 23.0893C763.899 23.1646 765.6 23.3689 767.311 23.4107C773.369 23.5587 778.789 20.6369 778.09 19.3619C777.294 17.909 773.018 21.4045 765.724 20.6895C757.5 20.6959 733.701 18.0417 734.497 19.4946Z" fill="#4F46E5"/>
<path d="M1125.74 11.9324C1126.22 13.7929 1142.25 18.8697 1149.74 16.9323C1154.64 15.6635 1162.66 14.769 1167.96 12.7584C1172.32 11.1087 1170.88 8.08788 1166.35 9.17362C1160.78 10.5096 1153.17 12.7861 1148.74 13.9323C1141.25 15.8697 1125.32 10.3284 1125.74 11.9324Z" fill="#4F46E5"/>
<path d="M1432.95 13.0506C1432.47 14.9111 1422.17 21.4723 1417.8 20.3404C1414.76 19.5559 1409.56 19.5317 1406.58 17.8502C1404.09 16.4476 1405.63 13.8271 1408.42 14.4564C1411.69 15.1945 1416.12 16.6471 1418.71 17.3179C1423.08 18.4498 1433.36 11.4466 1432.95 13.0506Z" fill="#4F46E5"/>
<path d="M393.789 23.6262C394.627 25.3555 411.346 27.1741 418.303 23.8001C422.859 21.5904 430.544 19.1338 435.35 16.1174C439.292 13.6425 437.291 10.9635 433.066 12.9198C427.869 15.3269 420.848 19.0597 416.732 21.0559C409.775 24.4299 393.066 22.1354 393.789 23.6262Z" fill="#4F46E5"/>
<path d="M252.391 10.6863C252.569 12.1858 267.547 17.4727 275.225 16.5599C279.701 16.0278 286.559 15.9288 291.921 15.1047C297.544 14.2405 296.769 11.3582 291.117 12.0065C285.638 12.6349 278.822 13.6358 274.718 14.1238C267.04 15.0367 252.237 9.39351 252.391 10.6863Z" fill="#4F46E5"/>
<path d="M334.8 50.4907C335.82 51.4504 348.564 48.4477 350.209 45.0946C351.097 43.2857 352.66 41.4867 353.449 39.7673C354.713 37.017 351.509 36.2741 350.037 38.9185C348.993 40.7944 347.909 43.0661 347.123 44.6665C345.478 48.0196 331.89 47.7519 334.8 50.4907Z" fill="#4F46E5"/>
<path d="M179.143 19.3392C179.893 20.0453 189.269 17.8362 190.48 15.3693C190.953 14.4042 191.688 13.4429 192.278 12.505C193.889 9.94276 191.178 9.20466 189.782 11.8898C189.204 13.0012 188.644 14.1678 188.209 15.0544C186.999 17.5213 177.002 17.3243 179.143 19.3392Z" fill="#4F46E5"/>
<path d="M550.357 22.3696C550.186 25.6953 577.507 35.4337 584.458 32.2791C588.595 30.4016 592.972 28.3654 595.77 26.2777C598.645 24.1329 596.926 22.0957 593.595 23.4236C589.686 24.9813 584.185 27.3495 579.41 28.8454C571.099 31.4489 550.528 19.044 550.357 22.3696Z" fill="#4F46E5"/>
<path d="M984.737 14.9324C985.219 16.7929 1001.25 21.8697 1008.74 19.9323C1013.64 18.6635 1021.66 17.769 1026.96 15.7584C1031.32 14.1087 1029.88 11.0879 1025.35 12.1736C1019.78 13.5096 1012.17 15.7861 1007.74 16.9323C1000.25 18.8697 984.322 13.3284 984.737 14.9324Z" fill="#4F46E5"/>
<path d="M1248.61 79.146C1242 76.0574 1241.24 78.4671 1247.42 82.3419C1248.11 82.7692 1248.8 83.1613 1249.5 83.4985C1253.89 85.6137 1258.29 85.1072 1261.5 83.4985C1263.97 82.2628 1267.28 73.138 1267 70.4986C1266.41 64.7676 1262.76 66.3626 1261.76 72.0358C1261.19 75.2489 1259.76 78.6215 1257 79.9985C1254.49 81.254 1251.46 80.4774 1248.61 79.146Z" fill="#4F46E5"/>
</svg>
