<svg width="1440" height="137" viewBox="0 0 1440 137" fill="none" xmlns="http://www.w3.org/2000/svg">
<mask id="path-1-inside-1_740_4249" fill="white">
<path d="M0 0H1440V136.111H0V0Z"/>
</mask>
<path d="M0 3H1440V-3H0V3Z" fill="#4F46E5" mask="url(#path-1-inside-1_740_4249)"/>
<path d="M0 0H1440C1440 7.28105 1433.27 13.3212 1426.05 14.232C1420.09 14.9834 1412.33 16.6242 1403 20C1393.02 23.6112 1377.08 43.2774 1382.2 104.13C1382.39 106.342 1382.26 108.617 1381.73 110.773C1374.69 139.181 1366.72 136.013 1364.5 136C1357.87 135.961 1346 135.5 1340.5 105.5C1336.1 81.5 1384.5 21.5 1342 23.5C1299.5 25.5 1331.5 89.5 1312.5 89C1293.5 88.5 1292.39 58 1291.5 52C1282 -12 1271.24 22.2747 1258 21.5C1243.55 20.6544 1246 2 1218.5 7C1191 12 1182 24 1147.5 18.5C1113 13 1122.46 55.1544 1099 55.5C1085.49 55.6991 1080.15 29.0612 1067.58 24.7645C1065.3 23.984 1062.85 24.62 1060.57 25.422C1042.52 31.7834 1022.79 35.743 996 16C975 6 981.602 9.84049 959 10C897 36.5 853.5 43 807 20.3321C807 20.3321 781.296 9.96938 764.5 10C749.041 10.0282 714.322 23.9845 697.5 24C679.278 24.0168 672.5 27.5 656.5 20.5C643.903 16.0012 635.759 5.83542 625.148 8.57731C622.639 9.2255 620.635 11.0344 618.825 12.8885C601.831 30.2982 590.73 23.6335 589 22.5C574.5 13 575.35 10.7388 567 11.5C544.831 13.5209 554.458 33.5 555.5 46C556.542 58.5 546.5 67.5 536 66C525.5 64.5 546 35.5 538 20.5C530 5.5 501.774 8.51588 489.5 8.5C476.622 8.48333 451.268 25.0376 439.5 25C421.369 24.9421 381.128 10.1121 366 10C346.013 9.85184 312.842 22.7542 299 22.5C276.181 22.0809 269.912 17.7537 267.5 17C245.414 10.0981 235.184 4.04313 214.989 18.318C211.337 20.8997 206.931 23.5207 205.859 27.8631C203.835 36.0611 203.987 52.3423 203.999 67.4003C204 68.4661 203.928 69.5336 203.728 70.5803C201.114 84.2049 192.906 90.7118 191 90.5C187.01 90.0567 177.123 92.7582 171.1 82.2222C169.415 79.2759 169.297 75.7471 169.699 72.3772C172.735 46.9185 166.666 38.7842 157 39.5C144.949 40.3924 153 58.5 134.5 58.5C116 58.5 114.516 13.8412 102 15C69.7847 17.9828 84 82.5 86.5 97C89 111.5 73.5 112 66.5 111C59.5 110 52.5 104.5 51 93.5C49.5 82.5 61.2661 45.7708 54 25C48.782 10.0838 28.0977 22.709 23.5 22.5C19.0116 22.296 14.2735 20.8433 10.2367 19.1949C3.60752 16.4878 0 9.66805 0 2.50742V0Z" fill="#4F46E5"/>
<path d="M82.7497 99.3963C82.3767 101.011 75.3656 107.954 67.8321 106.213C60.2986 104.472 56.0698 94.9322 56.4428 93.3179C56.8158 91.7036 58.4635 99.2563 65.997 100.997C73.5305 102.738 83.1227 97.782 82.7497 99.3963Z" fill="#CACACA"/>
<path d="M547.535 60.1192C547.301 61.1324 542.901 65.4901 538.172 64.3976C533.444 63.3051 535.377 54.162 535.611 53.1488C535.845 52.1356 535.27 59.9066 539.998 60.9991C544.726 62.0916 547.769 59.106 547.535 60.1192Z" fill="#CACACA"/>
<path d="M142.559 51.3841C142.367 52.2162 137.036 55.3988 130.633 53.9195C124.231 52.4401 125.727 44.9095 125.92 44.0773C126.112 43.2451 126.256 49.7703 132.659 51.2497C139.062 52.7291 142.751 50.5519 142.559 51.3841Z" fill="#CACACA"/>
<path d="M1374.82 117.995C1374.08 119.477 1362.77 129.738 1355.85 126.28C1348.94 122.822 1348.08 107.209 1348.82 105.727C1349.56 104.245 1348.94 116.769 1355.85 120.227C1362.77 123.685 1375.56 116.513 1374.82 117.995Z" fill="#CACACA"/>
<path d="M1317.8 77.0743C1317.64 78.035 1312.78 85.7154 1307.85 84.9127C1302.93 84.11 1299.28 75.4319 1299.44 74.4712C1299.6 73.5106 1301.72 80.6902 1306.64 81.4929C1311.56 82.2956 1317.96 76.1137 1317.8 77.0743Z" fill="#CACACA"/>
<path d="M614.54 13.2227C613.799 14.7047 600.305 24.4602 593.39 21.0023C586.474 17.5443 583.258 12.9843 583.999 11.5024C584.74 10.0204 586.474 14.0444 593.39 17.5024C600.305 20.9603 615.281 11.7408 614.54 13.2227Z" fill="#CACACA"/>
<path d="M705.503 19.4946C704.788 20.7973 686.46 22.7082 677.811 23.0893C676.101 23.1646 674.4 23.3689 672.689 23.4107C666.631 23.5587 661.211 20.6369 661.91 19.3619C662.706 17.909 666.982 21.4045 674.276 20.6895C682.5 20.6959 706.299 18.0417 705.503 19.4946Z" fill="#CACACA"/>
<path d="M314.263 11.9324C313.781 13.7929 297.748 18.8697 290.263 16.9323C285.361 15.6635 277.342 14.769 272.037 12.7584C267.684 11.1087 269.119 8.08788 273.645 9.17362C279.215 10.5096 286.834 12.7861 291.263 13.9323C298.748 15.8697 314.678 10.3284 314.263 11.9324Z" fill="#CACACA"/>
<path d="M7.05191 13.0506C7.53347 14.9111 17.8312 21.4723 22.2044 20.3404C25.2357 19.5559 30.4395 19.5317 33.4202 17.8502C35.9064 16.4476 34.3655 13.8271 31.5812 14.4564C28.3146 15.1945 23.8834 16.6471 21.2915 17.3179C16.9183 18.4498 6.63676 11.4466 7.05191 13.0506Z" fill="#CACACA"/>
<path d="M1046.21 23.6262C1045.37 25.3555 1028.65 27.1741 1021.7 23.8001C1017.14 21.5904 1009.46 19.1338 1004.65 16.1174C1000.71 13.6425 1002.71 10.9635 1006.93 12.9198C1012.13 15.3269 1019.15 19.0597 1023.27 21.0559C1030.23 24.4299 1046.93 22.1354 1046.21 23.6262Z" fill="#CACACA"/>
<path d="M1187.61 10.6863C1187.43 12.1858 1172.45 17.4727 1164.77 16.5599C1160.3 16.0278 1153.44 15.9288 1148.08 15.1047C1142.46 14.2405 1143.23 11.3582 1148.88 12.0065C1154.36 12.6349 1161.18 13.6358 1165.28 14.1238C1172.96 15.0367 1187.76 9.39351 1187.61 10.6863Z" fill="#CACACA"/>
<path d="M1105.2 50.4907C1104.18 51.4504 1091.44 48.4477 1089.79 45.0946C1088.9 43.2857 1087.34 41.4867 1086.55 39.7673C1085.29 37.017 1088.49 36.2741 1089.96 38.9185C1091.01 40.7944 1092.09 43.0661 1092.88 44.6665C1094.52 48.0196 1108.11 47.7519 1105.2 50.4907Z" fill="#CACACA"/>
<path d="M1260.86 19.3392C1260.11 20.0453 1250.73 17.8362 1249.52 15.3693C1249.05 14.4042 1248.31 13.4429 1247.72 12.505C1246.11 9.94276 1248.82 9.20466 1250.22 11.8898C1250.8 13.0012 1251.36 14.1678 1251.79 15.0544C1253 17.5213 1263 17.3243 1260.86 19.3392Z" fill="#CACACA"/>
<path d="M889.643 22.3696C889.814 25.6953 862.493 35.4337 855.542 32.2791C851.405 30.4016 847.028 28.3654 844.23 26.2777C841.355 24.1329 843.074 22.0957 846.405 23.4236C850.314 24.9813 855.815 27.3495 860.59 28.8454C868.901 31.4489 889.472 19.044 889.643 22.3696Z" fill="#CACACA"/>
<path d="M455.263 14.9324C454.781 16.7929 438.748 21.8697 431.263 19.9323C426.361 18.6635 418.342 17.769 413.037 15.7584C408.684 14.1087 410.119 11.0879 414.645 12.1736C420.215 13.5096 427.834 15.7861 432.263 16.9323C439.748 18.8697 455.678 13.3284 455.263 14.9324Z" fill="#CACACA"/>
<path d="M191.394 79.146C198.005 76.0574 198.758 78.4671 192.575 82.3419C191.894 82.7692 191.197 83.1613 190.497 83.4985C186.108 85.6137 181.714 85.1072 178.497 83.4985C176.026 82.2628 172.724 73.138 172.997 70.4986C173.59 64.7676 177.236 66.3626 178.241 72.0358C178.811 75.2489 180.243 78.6215 182.997 79.9985C185.508 81.254 188.545 80.4774 191.394 79.146Z" fill="#CACACA"/>
</svg>
