<svg width="148" height="70" viewBox="0 0 148 70" fill="none" xmlns="http://www.w3.org/2000/svg">
<g filter="url(#filter0_d_1059_613)">
<rect x="14" y="10" width="120" height="42" rx="21" fill="white" shape-rendering="crispEdges"/>
<path d="M42.0404 44C34.9191 44 29.125 38.1686 29.125 31C29.125 23.8315 34.9185 18 42.0404 18C46.5538 18 50.665 20.3103 53.0376 24.1806C53.7802 25.3926 53.4066 26.9806 52.2032 27.7281C50.9991 28.4761 49.4215 28.1001 48.6782 26.8881C47.2453 24.5509 44.764 23.1559 42.0398 23.1559C37.7426 23.1559 34.2468 26.6747 34.2468 31C34.2468 35.3253 37.7426 38.8441 42.0398 38.8441C44.5164 38.8441 46.8693 37.641 48.3348 35.6254C49.1698 34.4767 50.7731 34.2269 51.9144 35.0674C53.0562 35.9079 53.3043 37.5211 52.4693 38.6704C50.0432 42.0072 46.1447 44 42.0404 44Z" fill="#4F46E5"/>
<path d="M42.6443 33.5784H28.5615C27.1471 33.5784 26 32.4244 26 31.0001C26 29.5759 27.1465 28.4219 28.5615 28.4219H42.6443C44.0587 28.4219 45.2057 29.5759 45.2057 31.0001C45.2057 32.4244 44.0593 33.5784 42.6443 33.5784Z" fill="#FFB200"/>
<path d="M122.002 38.9857H118.725L115.54 34.6574L112.333 38.9857H109.125L113.96 32.6453L109.334 26.4922H112.565L115.61 30.5865L118.655 26.4922H121.793L117.144 32.5986L122.002 38.9857Z" fill="#4F46E5"/>
<path d="M106.727 24.4313C105.657 24.4313 104.867 23.6592 104.867 22.6766C104.867 21.6939 105.657 20.9219 106.727 20.9219C107.796 20.9219 108.586 21.6472 108.586 22.6064C108.586 23.6358 107.819 24.4313 106.727 24.4313ZM105.262 38.9836V26.4901H108.168V38.9836H105.262Z" fill="#4F46E5"/>
<path d="M97.3723 26.3516C100.998 26.3516 103.671 28.8783 103.671 32.7387C103.671 36.6224 100.998 39.1492 97.3723 39.1492C95.7918 39.1492 94.3971 38.6111 93.3977 37.4647V43.5242H90.4922V26.4919H93.2582V28.1297C94.2344 26.9365 95.6756 26.3516 97.3723 26.3516ZM97.0469 36.6458C99.1389 36.6458 100.719 35.1251 100.719 32.7387C100.719 30.3523 99.1389 28.8315 97.0469 28.8315C94.955 28.8315 93.3512 30.3523 93.3512 32.7387C93.3512 35.1251 94.955 36.6458 97.0469 36.6458Z" fill="#4F46E5"/>
<path d="M84.9375 38.9848V21.625H87.843V38.9848H84.9375Z" fill="#4F46E5"/>
<path d="M76.7187 26.3516C80.2983 26.3516 82.367 28.0595 82.367 31.6625V38.9854H79.6242V37.4647C78.9269 38.5409 77.5788 39.1492 75.7193 39.1492C72.8835 39.1492 71.0938 37.5817 71.0938 35.4058C71.0938 33.3236 72.4884 31.6859 76.2539 31.6859H79.4615V31.4987C79.4615 29.7908 78.4388 28.7847 76.3701 28.7847C74.9755 28.7847 73.5343 29.2527 72.6046 30.0247L71.4656 27.8957C72.7905 26.8663 74.7198 26.3516 76.7187 26.3516ZM76.3236 37.0201C77.7415 37.0201 78.9734 36.3651 79.4615 35.0783V33.6277H76.4631C74.4873 33.6277 73.9527 34.3764 73.9527 35.2888C73.9527 36.3417 74.836 37.0201 76.3236 37.0201Z" fill="#4F46E5"/>
<path d="M60.9826 36.4364H70.1639V38.9866H57.9609V22.6094H69.8385V25.1595H60.9826V29.4176H68.839V31.921H60.9826V36.4364Z" fill="#4F46E5"/>
</g>
<defs>
<filter id="filter0_d_1059_613" x="0" y="0" width="148" height="70" filterUnits="userSpaceOnUse" color-interpolation-filters="sRGB">
<feFlood flood-opacity="0" result="BackgroundImageFix"/>
<feColorMatrix in="SourceAlpha" type="matrix" values="0 0 0 0 0 0 0 0 0 0 0 0 0 0 0 0 0 0 127 0" result="hardAlpha"/>
<feOffset dy="4"/>
<feGaussianBlur stdDeviation="7"/>
<feComposite in2="hardAlpha" operator="out"/>
<feColorMatrix type="matrix" values="0 0 0 0 0 0 0 0 0 0 0 0 0 0 0 0 0 0 0.05 0"/>
<feBlend mode="normal" in2="BackgroundImageFix" result="effect1_dropShadow_1059_613"/>
<feBlend mode="normal" in="SourceGraphic" in2="effect1_dropShadow_1059_613" result="shape"/>
</filter>
</defs>
</svg>
