<svg width="17" height="16" viewBox="0 0 17 16" fill="none" xmlns="http://www.w3.org/2000/svg">
<path fill-rule="evenodd" clip-rule="evenodd" d="M6 8.6659C5.96923 8.72341 5.94038 8.78211 5.91354 8.84191C5.68519 9.3507 5.18204 9.83398 4.5 9.83398C3.67157 9.83398 3 10.5056 3 11.334C3 12.1624 3.67157 12.834 4.5 12.834H8.5H12.5C13.3284 12.834 14 12.1624 14 11.334C14 10.5056 13.3284 9.83398 12.5 9.83398C11.818 9.83398 11.3148 9.3507 11.0865 8.84192C11.0596 8.78211 11.0308 8.72341 11 8.6659V7.09473C11.4239 7.45976 11.7669 7.91588 11.9988 8.43245C12.1199 8.70223 12.3287 8.83398 12.5 8.83398C13.8807 8.83398 15 9.95327 15 11.334C15 12.7147 13.8807 13.834 12.5 13.834H8.5H4.5C3.11929 13.834 2 12.7147 2 11.334C2 9.95327 3.11929 8.83398 4.5 8.83398C4.67134 8.83398 4.88013 8.70223 5.00121 8.43245C5.23305 7.91588 5.57611 7.45976 6 7.09473L6 8.6659Z" fill="#4F46E5"/>
<path d="M8.50065 2L8.1471 1.64645L8.50065 1.29289L8.8542 1.64645L8.50065 2ZM9.00065 8.66667C9.00065 8.94281 8.77679 9.16667 8.50065 9.16667C8.22451 9.16667 8.00065 8.94281 8.00065 8.66667L9.00065 8.66667ZM5.48043 4.31311L8.1471 1.64645L8.8542 2.35355L6.18754 5.02022L5.48043 4.31311ZM8.8542 1.64645L11.5209 4.31311L10.8138 5.02022L8.1471 2.35355L8.8542 1.64645ZM9.00065 2L9.00065 8.66667L8.00065 8.66667L8.00065 2L9.00065 2Z" fill="#4F46E5"/>
</svg>
