<svg width="37" height="37" viewBox="0 0 37 37" fill="none" xmlns="http://www.w3.org/2000/svg">
<g clip-path="url(#clip0_902_12044)">
<path fill-rule="evenodd" clip-rule="evenodd" d="M0.8125 14.4654V18.844C0.8125 21.3344 4.7993 23.4262 10.1402 23.8907V17.3749C10.1402 17.2709 10.1431 17.168 10.1486 17.0663C7.18018 16.8545 4.48391 16.2246 2.36754 15.2804C1.81872 15.0355 1.29666 14.7641 0.8125 14.4654ZM23.9554 5.25223V9.03362C20.7777 9.13812 17.793 9.75449 15.4382 10.8011C14.1457 11.3755 12.9008 12.1428 11.9354 13.1571C11.7152 13.3885 11.5035 13.64 11.3074 13.9108C8.25573 13.796 5.59089 13.1988 3.67718 12.345C2.60743 11.8677 1.84255 11.3416 1.3667 10.8395C1.03618 10.4907 0.877323 10.1916 0.8125 9.94486V5.25223C0.8125 2.41191 5.99321 0.109375 12.3839 0.109375C18.7747 0.109375 23.9554 2.41191 23.9554 5.25223ZM12.3836 7.647C16.846 7.647 20.4635 6.60668 20.4635 5.32336C20.4635 4.04006 16.846 2.99971 12.3836 2.99971C7.92116 2.99971 4.30363 4.04006 4.30363 5.32336C4.30363 6.60668 7.92116 7.647 12.3836 7.647ZM13.3545 30.9665V26.5879C13.8387 26.8867 14.3607 27.1582 14.9095 27.403C17.5464 28.5795 21.0835 29.2678 24.9257 29.2678C28.7679 29.2678 32.3049 28.5795 34.9419 27.403C35.4909 27.158 36.0131 26.8864 36.4973 26.5876V30.9665C36.4973 33.7951 31.3545 36.1094 24.9259 36.1094C18.4973 36.1094 13.3545 33.7951 13.3545 30.9665ZM13.9087 22.9621C13.5782 22.6134 13.4193 22.3142 13.3545 22.0675V17.3749C13.3545 14.5345 18.5352 12.232 24.9259 12.232C31.3167 12.232 36.4973 14.5345 36.4973 17.3749V22.0657C36.4328 22.3128 36.2739 22.6125 35.9427 22.9621C35.4667 23.4642 34.702 23.9904 33.6323 24.4676C31.4967 25.4204 28.4256 26.0535 24.9257 26.0535C21.4256 26.0535 18.3547 25.4204 16.2192 24.4676C15.1494 23.9904 14.3845 23.4642 13.9087 22.9621ZM33.0056 17.446C33.0056 18.7293 29.3881 19.7696 24.9256 19.7696C20.4632 19.7696 16.8456 18.7293 16.8456 17.446C16.8456 16.1627 20.4632 15.1224 24.9256 15.1224C29.3881 15.1224 33.0056 16.1627 33.0056 17.446Z" fill="#FFB200"/>
</g>
<defs>
<clipPath id="clip0_902_12044">
<rect width="36" height="36" fill="white" transform="translate(0.5 0.109375)"/>
</clipPath>
</defs>
</svg>
