<svg width="24" height="24" viewBox="0 0 24 24" fill="none" xmlns="http://www.w3.org/2000/svg">
<path fill-rule="evenodd" clip-rule="evenodd" d="M14.5 10.6719V13.0031C14.5 14.3838 13.3807 15.5031 12 15.5031C10.6193 15.5031 9.5 14.3838 9.5 13.0031V10.6719C8.5939 11.196 7.86755 11.9964 7.43606 12.9578C7.27282 13.3215 7.19121 13.5033 7.13328 13.5844C6.95652 13.8317 6.81502 13.9233 6.51699 13.9833C6.41931 14.003 6.27954 14.003 6 14.003C4.34315 14.003 3 15.3461 3 17.003C3 18.6598 4.34315 20.003 6 20.003H12H18C19.6569 20.003 21 18.6598 21 17.003C21 15.3461 19.6569 14.003 18 14.003C17.7205 14.003 17.5807 14.003 17.483 13.9833C17.185 13.9233 17.0435 13.8317 16.8667 13.5844C16.8088 13.5033 16.7272 13.3215 16.5639 12.9578C16.1325 11.9964 15.4061 11.196 14.5 10.6719Z" fill="#4F46E5"/>
<path d="M12 3L11.2929 2.29289L12 1.58579L12.7071 2.29289L12 3ZM13 13C13 13.5523 12.5523 14 12 14C11.4477 14 11 13.5523 11 13L13 13ZM7.29289 6.29289L11.2929 2.29289L12.7071 3.70711L8.70711 7.70711L7.29289 6.29289ZM12.7071 2.29289L16.7071 6.29289L15.2929 7.70711L11.2929 3.70711L12.7071 2.29289ZM13 3L13 13L11 13L11 3L13 3Z" fill="#FFB200"/>
</svg>
