<svg width="32" height="33" viewBox="0 0 32 33" fill="none" xmlns="http://www.w3.org/2000/svg">
<path d="M25.3333 4.10938C26.0406 4.10938 26.7189 4.39033 27.219 4.89042C27.719 5.39052 28 6.0688 28 6.77604V25.4427C28 26.15 27.719 26.8282 27.219 27.3283C26.7189 27.8284 26.0406 28.1094 25.3333 28.1094H6.66667C5.95942 28.1094 5.28115 27.8284 4.78105 27.3283C4.28095 26.8282 4 26.15 4 25.4427V6.77604C4 6.0688 4.28095 5.39052 4.78105 4.89042C5.28115 4.39033 5.95942 4.10938 6.66667 4.10938H25.3333ZM24.6667 24.776V17.7094C24.6667 16.5566 24.2087 15.451 23.3936 14.6358C22.5784 13.8207 21.4728 13.3627 20.32 13.3627C19.1867 13.3627 17.8667 14.056 17.2267 15.096V13.616H13.5067V24.776H17.2267V18.2027C17.2267 17.176 18.0533 16.336 19.08 16.336C19.5751 16.336 20.0499 16.5327 20.3999 16.8828C20.75 17.2328 20.9467 17.7076 20.9467 18.2027V24.776H24.6667ZM9.17333 11.5227C9.76742 11.5227 10.3372 11.2867 10.7573 10.8666C11.1773 10.4465 11.4133 9.87679 11.4133 9.28271C11.4133 8.04271 10.4133 7.02938 9.17333 7.02938C8.57571 7.02938 8.00257 7.26678 7.57999 7.68936C7.1574 8.11194 6.92 8.68509 6.92 9.28271C6.92 10.5227 7.93333 11.5227 9.17333 11.5227ZM11.0267 24.776V13.616H7.33333V24.776H11.0267Z" fill="#4F46E5"/>
</svg>
