<svg width="32" height="33" viewBox="0 0 32 33" fill="none" xmlns="http://www.w3.org/2000/svg">
<path d="M10.96 4.10938H21.04C24.88 4.10938 28 7.22938 28 11.0694V21.1494C28 22.9953 27.2667 24.7656 25.9615 26.0708C24.6562 27.3761 22.8859 28.1094 21.04 28.1094H10.96C7.12 28.1094 4 24.9894 4 21.1494V11.0694C4 9.22347 4.73328 7.45317 6.03854 6.14791C7.34379 4.84266 9.11409 4.10938 10.96 4.10938ZM10.72 6.50938C9.57427 6.50938 8.47546 6.96452 7.6653 7.77467C6.85514 8.58483 6.4 9.68364 6.4 10.8294V21.3894C6.4 23.7774 8.332 25.7094 10.72 25.7094H21.28C22.4257 25.7094 23.5245 25.2542 24.3347 24.4441C25.1449 23.6339 25.6 22.5351 25.6 21.3894V10.8294C25.6 8.44138 23.668 6.50938 21.28 6.50938H10.72ZM22.3 8.30938C22.6978 8.30938 23.0794 8.46741 23.3607 8.74871C23.642 9.03002 23.8 9.41155 23.8 9.80938C23.8 10.2072 23.642 10.5887 23.3607 10.87C23.0794 11.1513 22.6978 11.3094 22.3 11.3094C21.9022 11.3094 21.5206 11.1513 21.2393 10.87C20.958 10.5887 20.8 10.2072 20.8 9.80938C20.8 9.41155 20.958 9.03002 21.2393 8.74871C21.5206 8.46741 21.9022 8.30938 22.3 8.30938ZM16 10.1094C17.5913 10.1094 19.1174 10.7415 20.2426 11.8667C21.3679 12.992 22 14.5181 22 16.1094C22 17.7007 21.3679 19.2268 20.2426 20.352C19.1174 21.4772 17.5913 22.1094 16 22.1094C14.4087 22.1094 12.8826 21.4772 11.7574 20.352C10.6321 19.2268 10 17.7007 10 16.1094C10 14.5181 10.6321 12.992 11.7574 11.8667C12.8826 10.7415 14.4087 10.1094 16 10.1094ZM16 12.5094C15.0452 12.5094 14.1295 12.8887 13.4544 13.5638C12.7793 14.2389 12.4 15.1546 12.4 16.1094C12.4 17.0642 12.7793 17.9798 13.4544 18.655C14.1295 19.3301 15.0452 19.7094 16 19.7094C16.9548 19.7094 17.8705 19.3301 18.5456 18.655C19.2207 17.9798 19.6 17.0642 19.6 16.1094C19.6 15.1546 19.2207 14.2389 18.5456 13.5638C17.8705 12.8887 16.9548 12.5094 16 12.5094Z" fill="#4F46E5"/>
</svg>
