<svg width="32" height="33" viewBox="0 0 32 33" fill="none" xmlns="http://www.w3.org/2000/svg">
<path d="M13.6 19.5379L19.828 16.1094L13.6 12.6808V19.5379ZM27.472 10.5894C27.628 11.1265 27.736 11.8465 27.808 12.7608C27.892 13.6751 27.928 14.4637 27.928 15.1494L28 16.1094C28 18.6122 27.808 20.4522 27.472 21.6294C27.172 22.6579 26.476 23.3208 25.396 23.6065C24.832 23.7551 23.8 23.8579 22.216 23.9265C20.656 24.0065 19.228 24.0408 17.908 24.0408L16 24.1094C10.972 24.1094 7.84 23.9265 6.604 23.6065C5.524 23.3208 4.828 22.6579 4.528 21.6294C4.372 21.0922 4.264 20.3722 4.192 19.4579C4.108 18.5437 4.072 17.7551 4.072 17.0694L4 16.1094C4 13.6065 4.192 11.7665 4.528 10.5894C4.828 9.5608 5.524 8.89795 6.604 8.61223C7.168 8.46366 8.2 8.3608 9.784 8.29223C11.344 8.21223 12.772 8.17795 14.092 8.17795L16 8.10938C21.028 8.10938 24.16 8.29223 25.396 8.61223C26.476 8.89795 27.172 9.5608 27.472 10.5894Z" fill="#4F46E5"/>
</svg>
