<svg width="27" height="25" viewBox="0 0 27 25" fill="none" xmlns="http://www.w3.org/2000/svg">
<path d="M15.5444 24.1314C8.86459 24.1314 3.42969 18.719 3.42969 12.0657C3.42969 5.41236 8.86404 0 15.5444 0C19.778 0 23.6344 2.14431 25.8599 5.73644C26.5565 6.86125 26.206 8.33513 25.0772 9.02891C23.9478 9.72323 22.4679 9.37417 21.7708 8.24935C20.4266 6.08007 18.0992 4.78535 15.5439 4.78535C11.5131 4.78535 8.23394 8.05122 8.23394 12.0657C8.23394 16.0802 11.5131 19.346 15.5439 19.346C17.867 19.346 20.074 18.2294 21.4486 16.3587C22.2319 15.2925 23.7358 15.0607 24.8063 15.8408C25.8773 16.6209 26.1101 18.1181 25.3268 19.1848C23.0511 22.2819 19.3943 24.1314 15.5444 24.1314Z" fill="white"/>
<path d="M16.1125 14.4578H2.90267C1.57597 14.4578 0.5 13.3867 0.5 12.0648C0.5 10.743 1.57543 9.67188 2.90267 9.67188H16.1125C17.4392 9.67188 18.5151 10.743 18.5151 12.0648C18.5151 13.3867 17.4397 14.4578 16.1125 14.4578Z" fill="#FFB200"/>
</svg>
